# xmcd
# Copyright (C) 1995-1998 Ti Kan
#
# Track frame offsets:
#       150
#       15582
#       28200
#       46875
#       64200
#       91144
#       105638
#       121950
#       133425
#       160219
#       180788
#       211950
#       225713
#       245063
#       264338
#       292720
#       302183
#
# Disc length: 4165 seconds
#
# Revision: 0
# Processed by: cddbd v1.5.2PL0 Copyright (c) Steve Scherf et al.
# Submitted via: CD-Transfer v1.0
#
DISCID=e6104311
DTITLE=Zupprmandor Schou - Dorfmann/Gasser
DYEAR=10
DGENRE=
TTITLE0=Die Zupprmandor Landung
TTITLE1=Verpennt
TTITLE2=I Bin Tata
TTITLE3=Sorgen Um Di
TTITLE4=Sie Sein Jung
TTITLE5=Heisl Baudn
TTITLE6=Joe
TTITLE7=Des Weart Sich Net Ausgian Kanon
TTITLE8=Aussn
TTITLE9=Gelheitssong
TTITLE10=Wellneswochenende
TTITLE11=Dor Franz Vom Grödnertol 3
TTITLE12=Die Sportballade
TTITLE13=Wir Sind Helden
TTITLE14=Afn Bankl
TTITLE15=Mir San Stärker Wie Die Stier (Obor)
TTITLE16=Fanilevakafa
EXTD=
EXTT0=
EXTT1=
EXTT2=
EXTT3=
EXTT4=
EXTT5=
EXTT6=
EXTT7=
EXTT8=
EXTT9=
EXTT10=
EXTT11=
EXTT12=
EXTT13=
EXTT14=
EXTT15=
EXTT16=
PLAYORDER=
